<?xml version="1.0" encoding="iso-8859-1"?>
<!-- Generator: Adobe Illustrator 19.0.0, SVG Export Plug-In . SVG Version: 6.00 Build 0)  -->
<svg version="1.1" id="Capa_1" xmlns="http://www.w3.org/2000/svg" xmlns:xlink="http://www.w3.org/1999/xlink" x="0px" y="0px"
	 viewBox="0 0 512 512" style="enable-background:new 0 0 512 512;" xml:space="preserve">
<g>
	<circle style="fill:#5A5F63;" cx="247.904" cy="256" r="247.904"/>
	<path style="fill:#5A5F63;" d="M344.048,76.624c51.376,6.432,72.976,36.336,88.464,48.816c6.352,5.12,13.632,9.456,21.696,10.688
		c28.384,4.624,46.096-24.176,57.792-48.496c-20.608-6.048-42.144-8.672-63.52-7.744c28.512-12.784,46.464-42.88,59.648-63.84
		C465.056,19.296,422.752,32,385.104,53.088L344.048,76.624z"/>
</g>
<path style="fill:#3E4347;" d="M0,256c0,136.96,111.008,247.904,247.904,247.888c77.936,0,147.504-35.952,192.976-92.256
	c-42.528,34.4-96.672,54.928-155.632,54.928c-136.88,0-247.904-110.928-247.904-247.888c0-58.96,20.528-113.104,54.928-155.632
	C36.016,108.496,0,178.064,0,256z"/>
<path style="fill:#FFD93B;" d="M48.784,256.464c12.16,46.08,56.032,68.832,98.016,50.464c19.632-8.592,47.76-20.64,70.528-35.984
	c20.288-13.456,45.536-16.848,68.608-9.424c25.856,8.32,55.712,12.4,77.024,15.312c45.28,6.192,81.504-27.472,80.688-75.264
	c-0.832-47.616-38.272-91.344-83.552-97.536c-23.984-3.28-58.416,13.536-85.712,36.992c-22.464,19.312-53.872,22.88-80.72,10.496
	c-32.32-14.832-69.232-21.072-91.024-11.584C60.688,158.128,36.464,210.352,48.784,256.464z"/>
<path style="fill:#F4C534;" d="M123.44,154.928c10.048,12.72,23.344,22.896,39.616,29.28c11.744,9.808,26.208,16.96,43.328,20.272
	c1.152,4.512,1.856,9.2,2.032,14.032c1.408,37.6-28.048,69.36-65.664,70.768s-69.36-28.064-70.768-65.664
	C70.768,190.88,92.912,162.656,123.44,154.928z"/>
<path style="fill:#FFFFFF;" d="M134.592,167.12c1.68-0.064,3.312,0.224,4.976,0.336c11.632,14.064,27.184,25.088,46.704,30.736
	c3.36,6.384,5.584,13.44,6.368,20.912c3.104,29.728-17.888,54.8-46.8,55.888c-28.896,1.088-54.928-22.24-58.032-51.968
	C84.688,193.264,105.68,168.192,134.592,167.12z"/>
<ellipse style="fill:#3E4347;" cx="140.211" cy="221.032" rx="30.896" ry="30.896"/>
<ellipse transform="matrix(-0.733 -0.6803 0.6803 -0.733 79.7001 451.3291)" style="fill:#FFFFFF;" cx="128.434" cy="210.022" rx="5.776" ry="8.816"/>
<path style="fill:#F4C534;" d="M346.96,131.968c-9.568,12.096-22.464,21.952-38.496,28.416
	c-11.376,9.456-25.552,16.56-42.544,20.224c-0.976,4.208-1.504,8.56-1.504,13.024c0,34.784,30.624,63.088,68.256,63.088
	s68.256-28.304,68.256-63.088C400.944,163.376,377.76,138.064,346.96,131.968z"/>
<path style="fill:#FFFFFF;" d="M336.288,143.616c-1.68,0-3.296,0.336-4.96,0.48c-11.104,13.392-26.224,24.112-45.52,30
	c-3.12,6-5.088,12.592-5.584,19.536c-1.984,27.568,19.92,50,48.848,50c28.912,0,54.064-22.448,56.064-50
	C387.12,166.048,365.2,143.616,336.288,143.616z"/>
<circle style="fill:#3E4347;" cx="332.672" cy="193.6" r="30.896"/>
<ellipse transform="matrix(-0.7072 -0.7071 0.7071 -0.7072 458.4524 554.3058)" style="fill:#FFFFFF;" cx="344.015" cy="182.214" rx="8.817" ry="5.776"/>
<g>
	<path style="fill:#3E4347;" d="M218.32,207.456c-20.96-6.448-39.76-24.272-59.664-38.448c-35.136-23.408-59.776-19.824-72.16-9.744
		c23.424-2.768,44.24,8.8,63.376,22.496C165.36,192.032,193.792,213.488,218.32,207.456z"/>
	<path style="fill:#3E4347;" d="M254.112,183.76c24.704,5.28,51.952-15.376,67.44-25.632c18.928-13.488,39.216-24.704,62.496-23.44
		c-12.8-9.248-37.344-11.872-71.264,10.688C293.072,159.408,275.12,176.512,254.112,183.76z"/>
</g>
<g>
</g>
<g>
</g>
<g>
</g>
<g>
</g>
<g>
</g>
<g>
</g>
<g>
</g>
<g>
</g>
<g>
</g>
<g>
</g>
<g>
</g>
<g>
</g>
<g>
</g>
<g>
</g>
<g>
</g>
</svg>
